<svg xmlns="http://www.w3.org/2000/svg" xmlns:xlink="http://www.w3.org/1999/xlink" width="500" zoomAndPan="magnify" viewBox="0 0 375 374.999991" height="500" preserveAspectRatio="xMidYMid meet" version="1.0"><defs><g/><clipPath id="bdc878bb27"><path d="M 18.070312 114.695312 L 357 114.695312 L 357 226.882812 L 18.070312 226.882812 Z M 18.070312 114.695312 " clip-rule="nonzero"/></clipPath><clipPath id="78d26a7b3d"><path d="M 74.164062 114.695312 L 300.835938 114.695312 C 315.710938 114.695312 329.980469 120.605469 340.5 131.125 C 351.019531 141.644531 356.929688 155.910156 356.929688 170.789062 C 356.929688 185.667969 351.019531 199.933594 340.5 210.453125 C 329.980469 220.972656 315.710938 226.882812 300.835938 226.882812 L 74.164062 226.882812 C 59.289062 226.882812 45.019531 220.972656 34.5 210.453125 C 23.980469 199.933594 18.070312 185.667969 18.070312 170.789062 C 18.070312 155.910156 23.980469 141.644531 34.5 131.125 C 45.019531 120.605469 59.289062 114.695312 74.164062 114.695312 Z M 74.164062 114.695312 " clip-rule="nonzero"/></clipPath></defs><g clip-path="url(#bdc878bb27)"><g clip-path="url(#78d26a7b3d)"><path fill="#000000" d="M 18.070312 114.695312 L 356.832031 114.695312 L 356.832031 226.882812 L 18.070312 226.882812 Z M 18.070312 114.695312 " fill-opacity="1" fill-rule="nonzero"/></g></g><g fill="#e9eaec" fill-opacity="1"><g transform="translate(52.70215, 195.914109)"><g><path d="M 43.109375 -28.640625 L 41.9375 -27.453125 L 43.109375 -26.28125 C 46.140625 -23.3125 47.5625 -19.609375 47.5625 -15.34375 C 47.5625 -6.859375 40.875 0 32.65625 0 L 3.46875 0 L 3.46875 -6.5 L 32.65625 -6.5 C 37.359375 -6.5 41.3125 -10.390625 41.3125 -15.34375 C 41.3125 -20.15625 37.359375 -24.25 32.65625 -24.25 L 3.46875 -24.25 L 3.46875 -30.671875 L 32.65625 -30.671875 C 37.421875 -30.671875 41.3125 -34.75 41.3125 -39.640625 C 41.3125 -44.53125 37.359375 -48.421875 32.65625 -48.421875 L 3.46875 -48.421875 L 3.46875 -54.921875 L 32.65625 -54.921875 C 40.875 -54.921875 47.5625 -48.046875 47.5625 -39.640625 C 47.5625 -35.3125 46.078125 -31.65625 43.109375 -28.640625 Z M 43.109375 -28.640625 "/></g></g></g><g fill="#fad02c" fill-opacity="1"><g transform="translate(103.725584, 195.914109)"><g><path d="M 57.140625 -27.453125 C 57.140625 -19.859375 54.484375 -13.421875 49.234375 -8.09375 C 43.84375 -2.71875 37.71875 0 30.296875 0 C 15.515625 0 3.46875 -12.375 3.46875 -27.453125 C 3.46875 -42.609375 15.515625 -54.921875 30.296875 -54.921875 C 45.015625 -54.921875 57.140625 -42.546875 57.140625 -27.453125 Z M 9.828125 -27.453125 C 9.828125 -15.640625 18.734375 -6.5 30.296875 -6.5 C 41.75 -6.5 50.78125 -15.703125 50.78125 -27.453125 C 50.78125 -39.140625 41.6875 -48.421875 30.296875 -48.421875 C 18.796875 -48.421875 9.828125 -39.203125 9.828125 -27.453125 Z M 9.828125 -27.453125 "/></g></g></g><g fill="#ff5757" fill-opacity="1"><g transform="translate(164.334955, 195.914109)"><g><path d="M 29.3125 -53 L 55.21875 0 L 48.171875 0 L 29.375 -38.34375 L 10.515625 0 L 3.46875 0 Z M 29.3125 -53 "/></g></g></g><g fill="#8c52ff" fill-opacity="1"><g transform="translate(223.022455, 195.914109)"><g><path d="M 36.421875 0 L 21.828125 -25.90625 C 23.6875 -25.84375 25.609375 -25.84375 27.453125 -25.84375 C 33.578125 -25.84375 38.53125 -31.046875 38.53125 -37.234375 C 38.53125 -43.359375 33.453125 -48.421875 27.453125 -48.421875 L 3.46875 -48.421875 L 3.46875 -54.921875 L 27.453125 -54.921875 C 37.109375 -54.921875 44.78125 -47.0625 44.78125 -37.234375 C 44.78125 -30.0625 40.625 -23.5 34.140625 -20.71875 L 32.53125 -19.96875 L 43.65625 0 Z M 3.46875 0 L 3.46875 -37.171875 L 9.703125 -37.171875 L 9.703125 0 Z M 3.46875 0 "/></g></g></g><g fill="#5271ff" fill-opacity="1"><g transform="translate(271.268542, 195.914109)"><g><path d="M 20.78125 0 L 3.46875 0 L 3.46875 -6.5 L 20.78125 -6.5 C 26.09375 -6.5 31.546875 -8.53125 35.375 -12.609375 C 39.015625 -16.578125 41.3125 -21.953125 41.3125 -27.453125 C 41.3125 -33.09375 39.015625 -38.40625 35.1875 -42.296875 C 31.296875 -46.328125 26.28125 -48.421875 20.78125 -48.421875 L 3.46875 -48.421875 L 3.46875 -54.921875 L 20.78125 -54.921875 C 35.4375 -54.921875 47.5625 -42.421875 47.5625 -27.453125 C 47.5625 -12.4375 35.4375 0 20.78125 0 Z M 20.78125 0 "/></g></g></g></svg>